<svg width="45" height="50" viewBox="0 0 45 50" fill="none" xmlns="http://www.w3.org/2000/svg">
<path d="M37.4936 47.9939C34.586 50.6325 31.4114 50.2159 28.3554 48.966C25.1214 47.6884 22.1545 47.6329 18.7425 48.966C14.4701 50.688 12.2152 50.1881 9.6636 47.9939C-4.81513 34.0235 -2.67893 12.7484 13.758 11.9707C17.7634 12.1651 20.5523 14.026 22.8962 14.1927C26.3972 13.5261 29.7499 11.6096 33.4882 11.8596C37.9683 12.1929 41.3507 13.8594 43.5759 16.859C34.319 22.0528 36.5145 33.468 45 36.662C43.3088 40.8282 41.1133 44.9665 37.4639 48.0217L37.4936 47.9939ZM22.5995 11.8041C22.1545 5.6104 27.5247 0.499937 33.6959 0C34.5563 7.16576 26.7532 12.4984 22.5995 11.8041Z" fill="black"/>
</svg>
