<svg width="16" height="20" viewBox="0 0 16 20" fill="none" xmlns="http://www.w3.org/2000/svg">
<path d="M2.44183 1.25H13.4301C13.7539 1.25 14.0644 1.3817 14.2934 1.61612C14.5223 1.85054 14.651 2.16848 14.651 2.5H1.22091C1.22091 2.16848 1.34955 1.85054 1.57851 1.61612C1.80748 1.3817 2.11802 1.25 2.44183 1.25ZM0 2.5V3.125C0 3.1525 0.00162782 3.17958 0.00488359 3.20625L1.64946 17.7863C1.71804 18.3955 2.00298 18.9577 2.45006 19.3659C2.89714 19.7741 3.47517 19.9997 4.07419 20H11.7989C12.3977 19.9998 12.9756 19.7743 13.4227 19.3663C13.8697 18.9584 14.1548 18.3965 14.2237 17.7875L15.867 3.205L15.8719 3.14375V2.5C15.8719 1.83696 15.6146 1.20107 15.1567 0.732233C14.6988 0.263392 14.0777 0 13.4301 0H2.44183C1.79422 0 1.17313 0.263392 0.715195 0.732233C0.257263 1.20107 0 1.83696 0 2.5ZM9.52191 7.1875L10.0738 8.165C10.1138 8.23616 10.1398 8.31471 10.1503 8.39615C10.1607 8.4776 10.1554 8.56036 10.1346 8.63969C10.1138 8.71903 10.0779 8.79339 10.029 8.85854C9.98016 8.92368 9.91923 8.97834 9.84973 9.01937C9.78022 9.06041 9.7035 9.08703 9.62395 9.09772C9.5444 9.1084 9.46357 9.10293 9.38608 9.08163C9.30859 9.06033 9.23596 9.02362 9.17233 8.97358C9.10869 8.92354 9.05531 8.86116 9.01523 8.79L8.4646 7.8125C8.41102 7.7175 8.33396 7.6386 8.24116 7.58375C8.14836 7.5289 8.0431 7.50003 7.93594 7.50003C7.82879 7.50003 7.72353 7.5289 7.63073 7.58375C7.53793 7.6386 7.46087 7.7175 7.40729 7.8125L6.85543 8.79C6.81564 8.86165 6.7624 8.92454 6.69877 8.97504C6.63515 9.02554 6.56239 9.06266 6.4847 9.08426C6.407 9.10585 6.3259 9.1115 6.24607 9.10088C6.16623 9.09025 6.08924 9.06357 6.01952 9.02235C5.9498 8.98114 5.88873 8.92621 5.83983 8.86074C5.79092 8.79526 5.75515 8.72053 5.73457 8.64084C5.714 8.56115 5.70902 8.47809 5.71992 8.39642C5.73083 8.31476 5.75741 8.23611 5.79812 8.165L6.34998 7.1875C7.05444 5.9375 8.81622 5.9375 9.52191 7.1875ZM10.5792 11.5625L10.4474 11.33C10.3664 11.1863 10.3445 11.0155 10.3866 10.8553C10.4286 10.6951 10.531 10.5585 10.6714 10.4756C10.8118 10.3927 10.9786 10.3703 11.135 10.4134C11.2915 10.4564 11.4249 10.5613 11.5059 10.705L11.6365 10.9375C11.7973 11.2225 11.8819 11.5459 11.8819 11.875C11.8819 12.2041 11.7973 12.5274 11.6365 12.8125C11.4758 13.0975 11.2446 13.3342 10.9662 13.4988C10.6878 13.6633 10.372 13.75 10.0506 13.75H9.15686C8.99495 13.75 8.83968 13.6842 8.7252 13.5669C8.61072 13.4497 8.5464 13.2908 8.5464 13.125C8.5464 12.9592 8.61072 12.8003 8.7252 12.6831C8.83968 12.5658 8.99495 12.5 9.15686 12.5H10.0506C10.1577 12.5 10.263 12.4711 10.3558 12.4163C10.4486 12.3614 10.5256 12.2825 10.5792 12.1875C10.6328 12.0925 10.661 11.9847 10.661 11.875C10.661 11.7653 10.6328 11.6575 10.5792 11.5625ZM6.71503 12.5C6.87693 12.5 7.0322 12.5658 7.14669 12.6831C7.26117 12.8003 7.32549 12.9592 7.32549 13.125C7.32549 13.2908 7.26117 13.4497 7.14669 13.5669C7.0322 13.6842 6.87693 13.75 6.71503 13.75H5.82132C5.49975 13.7502 5.18379 13.6637 4.90522 13.4992C4.62666 13.3348 4.3953 13.0981 4.23442 12.813C4.07355 12.5279 3.98882 12.2045 3.98877 11.8753C3.98872 11.5461 4.07334 11.2226 4.23413 10.9375L4.36599 10.705C4.44752 10.5626 4.58074 10.459 4.73659 10.4169C4.89243 10.3747 5.05825 10.3973 5.19786 10.4798C5.33746 10.5624 5.43952 10.6981 5.48175 10.8573C5.52399 11.0166 5.50298 11.1865 5.4233 11.33L5.29266 11.5625C5.23909 11.6575 5.21088 11.7653 5.21088 11.875C5.21088 11.9847 5.23908 12.0925 5.29266 12.1875C5.34624 12.2825 5.4233 12.3614 5.5161 12.4163C5.6089 12.4711 5.71416 12.5 5.82132 12.5H6.71503Z" fill="white"/>
</svg>
