<svg width="42" height="34" viewBox="0 0 42 34" fill="none" xmlns="http://www.w3.org/2000/svg">
<path fill-rule="evenodd" clip-rule="evenodd" d="M12.5 0.00104588C10.2899 0.00104588 8.17025 0.879019 6.60744 2.44182C5.04464 4.00463 4.16667 6.12424 4.16667 8.33438C4.16667 10.5445 5.04464 12.6641 6.60744 14.2269C8.17025 15.7897 10.2899 16.6677 12.5 16.6677C14.7101 16.6677 16.8298 15.7897 18.3926 14.2269C19.9554 12.6641 20.8333 10.5445 20.8333 8.33438C20.8333 6.12424 19.9554 4.00463 18.3926 2.44182C16.8298 0.879019 14.7101 0.00104588 12.5 0.00104588ZM8.33333 18.751C6.1232 18.751 4.00358 19.629 2.44078 21.1918C0.877974 22.7546 0 24.8742 0 27.0844V29.1677C0 30.2728 0.438987 31.3326 1.22039 32.114C2.00179 32.8954 3.0616 33.3344 4.16667 33.3344H20.8333C21.9384 33.3344 22.9982 32.8954 23.7796 32.114C24.561 31.3326 25 30.2728 25 29.1677V27.0844C25 24.8742 24.122 22.7546 22.5592 21.1918C20.9964 19.629 18.8768 18.751 16.6667 18.751H8.33333ZM23.4375 14.3865C24.4333 12.5948 25 10.5323 25 8.33438C25.0004 6.21654 24.4628 4.13332 23.4375 2.28021C24.6205 1.1609 26.1055 0.412737 27.709 0.12819C29.3125 -0.156358 30.9642 0.035183 32.4601 0.679139C33.9559 1.3231 35.2303 2.39124 36.1257 3.75157C37.0211 5.11189 37.4983 6.70477 37.4983 8.33334C37.4983 9.96191 37.0211 11.5548 36.1257 12.9151C35.2303 14.2754 33.9559 15.3436 32.4601 15.9875C30.9642 16.6315 29.3125 16.823 27.709 16.5385C26.1055 16.2539 24.6205 15.5058 23.4375 14.3865ZM28.0542 33.3344C28.7625 32.1094 29.1687 30.6865 29.1687 29.1677V27.0844C29.1726 24.0089 28.0387 21.0407 25.9854 18.751H33.3333C35.5435 18.751 37.6631 19.629 39.2259 21.1918C40.7887 22.7546 41.6667 24.8742 41.6667 27.0844V29.1677C41.6667 30.2728 41.2277 31.3326 40.4463 32.114C39.6649 32.8954 38.6051 33.3344 37.5 33.3344H28.0542Z" fill="black"/>
</svg>
