<svg width="32" height="32" viewBox="0 0 32 32" fill="none" xmlns="http://www.w3.org/2000/svg">
<path d="M14.8266 1.23332C14.2621 1.46651 13.7574 1.97277 12.7465 2.98222C11.7356 3.99474 11.2293 4.49947 10.9977 5.06249C10.8435 5.4348 10.7641 5.83386 10.7641 6.23686C10.7641 6.63986 10.8435 7.03891 10.9977 7.41123C11.2293 7.97578 11.734 8.48051 12.7465 9.49149C13.7559 10.5025 14.2621 11.0087 14.8266 11.2404C15.5781 11.5515 16.4223 11.5515 17.1737 11.2404C17.7382 11.0087 18.2429 10.504 19.2538 9.49149C20.2647 8.47897 20.7694 7.97578 21.0026 7.41123C21.3137 6.65975 21.3137 5.8155 21.0026 5.06402C20.7694 4.49947 20.2663 3.99474 19.2538 2.98375C18.2414 1.97277 17.7382 1.46651 17.1737 1.23332C16.4223 0.922226 15.5781 0.922226 14.8266 1.23332ZM5.06255 10.9965C4.49957 11.2297 3.99334 11.7344 2.98395 12.7454C1.97149 13.7579 1.4668 14.2626 1.23363 14.8256C1.07939 15.1979 1 15.597 1 16C1 16.403 1.07939 16.8021 1.23363 17.1744C1.4668 17.7389 1.97303 18.2437 2.98242 19.2546C3.99487 20.2656 4.49957 20.7703 5.06255 21.0035C5.43484 21.1578 5.83387 21.2372 6.23685 21.2372C6.63983 21.2372 7.03886 21.1578 7.41115 21.0035C7.97567 20.7703 8.48036 20.2656 9.49129 19.2546C10.5022 18.2437 11.0069 17.7389 11.2401 17.1744C11.5512 16.4229 11.5512 15.5786 11.2401 14.8272C11.0069 14.2626 10.5037 13.7563 9.49129 12.7454C8.47883 11.7344 7.97567 11.2297 7.41115 10.9965C6.65972 10.6854 5.81398 10.6854 5.06255 10.9965ZM22.509 12.7454C21.4981 13.7579 20.9934 14.2626 20.7602 14.8256C20.606 15.1979 20.5266 15.597 20.5266 16C20.5266 16.403 20.606 16.8021 20.7602 17.1744C20.9934 17.7389 21.4981 18.2437 22.509 19.2546C23.52 20.2656 24.0262 20.7703 24.5892 21.0035C25.3406 21.3146 26.1848 21.3146 26.9362 21.0035C27.5007 20.7703 28.007 20.2656 29.0179 19.2546C30.0288 18.2437 30.532 17.7389 30.7667 17.1744C31.0778 16.4229 31.0778 15.5786 30.7667 14.8272C30.532 14.2626 30.0288 13.7563 29.0179 12.7454C28.0054 11.7344 27.5007 11.2297 26.9378 10.9965C26.5655 10.8422 26.1664 10.7628 25.7635 10.7628C25.3605 10.7628 24.9615 10.8422 24.5892 10.9965C24.0262 11.2297 23.52 11.7344 22.509 12.7454ZM14.8266 20.7596C14.2621 20.9928 13.7574 21.4991 12.7465 22.5085C11.7356 23.521 11.2293 24.0258 10.9977 24.5903C10.6866 25.3418 10.6866 26.186 10.9977 26.9375C11.2293 27.5021 11.734 28.0068 12.7465 29.0178C13.7559 30.0288 14.2621 30.535 14.8266 30.7667C15.5781 31.0778 16.4223 31.0778 17.1737 30.7667C17.7382 30.535 18.2429 30.0303 19.2538 29.0178C20.2647 28.0053 20.7694 27.5021 21.0026 26.9375C21.314 26.1858 21.314 25.342 21.0026 24.5903C20.7694 24.0258 20.2663 23.5195 19.2538 22.51C18.2429 21.4975 17.7382 20.9928 17.1737 20.7596C16.4223 20.4485 15.5781 20.4485 14.8266 20.7596Z" stroke="white" stroke-width="2" stroke-linecap="round" stroke-linejoin="round"/>
</svg>
