<svg width="38" height="44" viewBox="0 0 38 44" fill="none" xmlns="http://www.w3.org/2000/svg">
<path d="M37.5 35.4167V37.5H0V35.4167L4.16667 31.25V18.75C4.16667 12.2917 8.39583 6.60417 14.5833 4.77083V4.16667C14.5833 3.0616 15.0223 2.00179 15.8037 1.22039C16.5851 0.438987 17.6449 0 18.75 0C19.8551 0 20.9149 0.438987 21.6963 1.22039C22.4777 2.00179 22.9167 3.0616 22.9167 4.16667V4.77083C29.1042 6.60417 33.3333 12.2917 33.3333 18.75V31.25L37.5 35.4167ZM22.9167 39.5833C22.9167 40.6884 22.4777 41.7482 21.6963 42.5296C20.9149 43.311 19.8551 43.75 18.75 43.75C17.6449 43.75 16.5851 43.311 15.8037 42.5296C15.0223 41.7482 14.5833 40.6884 14.5833 39.5833" fill="black"/>
</svg>
