<svg width="38" height="30" viewBox="0 0 38 30" fill="none" xmlns="http://www.w3.org/2000/svg">
<path d="M3.36667 29.1667C2.40694 29.1667 1.60625 28.8458 0.964583 28.2042C0.322917 27.5625 0.00138889 26.7611 0 25.8V3.36667C0 2.40694 0.321528 1.60625 0.964583 0.964583C1.60764 0.322916 2.40764 0.00138889 3.36458 0H34.1354C35.0937 0 35.8937 0.321527 36.5354 0.964583C37.1771 1.60764 37.4986 2.40833 37.5 3.36667V25.8021C37.5 26.7604 37.1785 27.5611 36.5354 28.2042C35.8924 28.8472 35.0924 29.1681 34.1354 29.1667H3.36667ZM18.75 14.5C18.9236 14.5 19.0861 14.4736 19.2375 14.4208C19.3875 14.3681 19.5361 14.3035 19.6833 14.2271L34.7437 4.36667C34.941 4.24722 35.0694 4.08403 35.1292 3.87708C35.1889 3.67014 35.1778 3.46389 35.0958 3.25833C35.0431 2.99028 34.8681 2.79583 34.5708 2.675C34.275 2.55556 33.9882 2.57986 33.7104 2.74792L18.75 12.5L3.79167 2.75C3.51389 2.58056 3.23333 2.54444 2.95 2.64167C2.66667 2.73889 2.48472 2.93056 2.40417 3.21667C2.32361 3.43056 2.31319 3.64792 2.37292 3.86875C2.43264 4.08958 2.56042 4.25625 2.75625 4.36875L17.8167 14.2271C17.9639 14.3035 18.1125 14.3681 18.2625 14.4208C18.4139 14.4722 18.5764 14.4979 18.75 14.4979" fill="#FFFCFC"/>
</svg>
