<svg width="47" height="35" viewBox="0 0 47 35" fill="none" xmlns="http://www.w3.org/2000/svg">
<path d="M46.5 17.4375C46.5 17.9514 46.2959 18.4442 45.9325 18.8075C45.5692 19.1709 45.0764 19.375 44.5625 19.375H1.9375C1.42364 19.375 0.930833 19.1709 0.567481 18.8075C0.204129 18.4442 0 17.9514 0 17.4375C0 16.9236 0.204129 16.4308 0.567481 16.0675C0.930833 15.7041 1.42364 15.5 1.9375 15.5H44.5625C45.0764 15.5 45.5692 15.7041 45.9325 16.0675C46.2959 16.4308 46.5 16.9236 46.5 17.4375ZM1.9375 3.875H44.5625C45.0764 3.875 45.5692 3.67087 45.9325 3.30752C46.2959 2.94417 46.5 2.45136 46.5 1.9375C46.5 1.42364 46.2959 0.930833 45.9325 0.567481C45.5692 0.204129 45.0764 0 44.5625 0H1.9375C1.42364 0 0.930833 0.204129 0.567481 0.567481C0.204129 0.930833 0 1.42364 0 1.9375C0 2.45136 0.204129 2.94417 0.567481 3.30752C0.930833 3.67087 1.42364 3.875 1.9375 3.875ZM44.5625 31H1.9375C1.42364 31 0.930833 31.2041 0.567481 31.5675C0.204129 31.9308 0 32.4236 0 32.9375C0 33.4514 0.204129 33.9442 0.567481 34.3075C0.930833 34.6709 1.42364 34.875 1.9375 34.875H44.5625C45.0764 34.875 45.5692 34.6709 45.9325 34.3075C46.2959 33.9442 46.5 33.4514 46.5 32.9375C46.5 32.4236 46.2959 31.9308 45.9325 31.5675C45.5692 31.2041 45.0764 31 44.5625 31Z" fill="white"/>
</svg>
