<svg width="45" height="30" viewBox="0 0 45 30" fill="none" xmlns="http://www.w3.org/2000/svg">
<path d="M3.04054 1.21993L4.58253 0L40.9604 28.7801L39.4184 30L32.1646 24.244C29.1892 25.2234 25.9315 25.7732 22.5 25.7732C12.5965 25.7732 4.03957 21.2199 0 14.6048C2.10666 11.1684 5.40782 8.29897 9.46911 6.32302L3.04054 1.21993ZM22.5 24.055C25.3016 24.055 27.9947 23.6598 30.4706 22.921L28.0381 20.9794C26.4527 21.8385 24.5632 22.3368 22.5 22.3368C17.0705 22.3368 12.7268 18.9003 12.7268 14.6048C12.7268 12.9725 13.3567 11.4777 14.4426 10.2234L11.0763 7.57732C7.43986 9.25339 4.45108 11.6833 2.43243 14.6048C6.29826 20.2406 13.8127 24.055 22.5 24.055ZM42.5676 14.6048C38.7017 8.96907 31.1873 5.15464 22.5 5.15464C20.0024 5.15464 17.57 5.4811 15.3113 6.06529L13.6173 4.72509C16.3755 3.88316 19.3726 3.43643 22.5 3.43643C32.4035 3.43643 40.9604 7.98969 45 14.6048C43.0264 17.845 39.9695 20.5962 36.1607 22.5601L34.597 21.3058C37.9199 19.6564 40.6781 17.354 42.5676 14.6048ZM22.5 6.87285C27.9295 6.87285 32.2732 10.3093 32.2732 14.6048C32.2732 16.0137 31.7954 17.3196 30.9701 18.4536L29.3629 17.1821C29.8407 16.3918 30.1013 15.5326 30.1013 14.6048C30.1013 13.0099 29.3005 11.4802 27.875 10.3525C26.4494 9.22465 24.516 8.59107 22.5 8.59107C21.3272 8.59107 20.2413 8.79725 19.2423 9.17526L17.6351 7.90378C19.0685 7.25086 20.7191 6.87285 22.5 6.87285ZM14.8986 14.6048C14.8986 16.1998 15.6995 17.7294 17.125 18.8572C18.5506 19.985 20.484 20.6186 22.5 20.6186C23.9551 20.6186 25.3016 20.2921 26.4527 19.7595L15.9846 11.4777C15.3113 12.3883 14.8986 13.4536 14.8986 14.6048Z" fill="#8F8F8F"/>
</svg>
