<svg width="32" height="24" viewBox="0 0 32 24" fill="none" xmlns="http://www.w3.org/2000/svg">
<path d="M28.3125 2.25H22.6875V0H8.625V2.25H3C2.20435 2.25 1.44129 2.56607 0.87868 3.12868C0.31607 3.69129 0 4.45435 0 5.25V20.8125C0 21.6081 0.31607 22.3712 0.87868 22.9338C1.44129 23.4964 2.20435 23.8125 3 23.8125H28.3125C29.1081 23.8125 29.8712 23.4964 30.4338 22.9338C30.9964 22.3712 31.3125 21.6081 31.3125 20.8125V5.25C31.3125 4.45435 30.9964 3.69129 30.4338 3.12868C29.8712 2.56607 29.1081 2.25 28.3125 2.25ZM15.6555 22.125C10.6425 22.125 6.5655 18.045 6.5655 13.032C6.5655 8.019 10.6425 3.939 15.6555 3.939C20.6685 3.939 24.7485 8.019 24.7485 13.032C24.7485 18.045 20.6685 22.122 15.6555 22.122V22.125ZM15.6555 6.9375C14.8551 6.9376 14.0625 7.09535 13.323 7.40176C12.5835 7.70817 11.9117 8.15722 11.3457 8.72329C10.7798 9.28935 10.3309 9.96134 10.0247 10.7009C9.71846 11.4404 9.5609 12.2331 9.561 13.0335C9.5611 13.8339 9.71885 14.6265 10.0253 15.366C10.3317 16.1055 10.7807 16.7773 11.3468 17.3433C11.9129 17.9092 12.5848 18.3581 13.3244 18.6643C14.0639 18.9705 14.8566 19.1281 15.657 19.128C17.2738 19.1278 18.8242 18.4854 19.9673 17.342C21.1104 16.1986 21.7524 14.648 21.7522 13.0312C21.7521 11.4145 21.1096 9.86403 19.9662 8.72095C18.8229 7.57787 17.2723 6.9358 15.6555 6.936V6.9375Z" fill="black"/>
</svg>
