<svg width="42" height="42" viewBox="0 0 42 42" fill="none" xmlns="http://www.w3.org/2000/svg">
<path fill-rule="evenodd" clip-rule="evenodd" d="M24.9667 1.12917C25.1479 1.48125 25.1937 1.93333 25.2833 2.8375C25.4542 4.54583 25.5396 5.4 25.8979 5.87083C26.1212 6.16317 26.4179 6.39118 26.7578 6.5317C27.0977 6.67221 27.4688 6.72022 27.8333 6.67083C28.4167 6.59375 29.0833 6.05 30.4125 4.9625C31.1146 4.38542 31.4667 4.09792 31.8437 3.97708C32.324 3.82362 32.8436 3.84953 33.3062 4.05C33.6708 4.20833 33.9938 4.52917 34.6333 5.17083L36.4958 7.03333C37.1375 7.675 37.4583 7.99583 37.6167 8.36042C37.8171 8.82303 37.843 9.34265 37.6896 9.82292C37.5687 10.2 37.2812 10.5521 36.7062 11.2542C35.6167 12.5854 35.0729 13.25 34.9938 13.8354C34.945 14.1998 34.9935 14.5706 35.1344 14.9101C35.2752 15.2497 35.5034 15.5459 35.7958 15.7688C36.2646 16.1271 37.1208 16.2125 38.8312 16.3833C39.7333 16.4729 40.1854 16.5187 40.5396 16.7C40.9864 16.9317 41.3342 17.3172 41.5187 17.7854C41.6667 18.1542 41.6667 18.6083 41.6667 19.5167V22.15C41.6667 23.0583 41.6667 23.5125 41.5208 23.8792C41.3357 24.3488 40.9862 24.7353 40.5375 24.9667C40.1854 25.1479 39.7333 25.1937 38.8292 25.2833C37.1208 25.4542 36.2667 25.5396 35.7958 25.8979C35.5035 26.1212 35.2755 26.4179 35.135 26.7578C34.9944 27.0977 34.9464 27.4688 34.9958 27.8333C35.075 28.4167 35.6187 29.0833 36.7062 30.4125C37.2812 31.1146 37.5687 31.4646 37.6896 31.8437C37.843 32.324 37.8171 32.8436 37.6167 33.3062C37.4583 33.6708 37.1375 33.9917 36.4958 34.6333L34.6333 36.4937C33.9917 37.1375 33.6708 37.4583 33.3062 37.6146C32.8436 37.8151 32.324 37.841 31.8437 37.6875C31.4667 37.5667 31.1146 37.2792 30.4125 36.7042C29.0812 35.6167 28.4167 35.0729 27.8333 34.9958C27.4688 34.9464 27.0977 34.9944 26.7578 35.135C26.4179 35.2755 26.1212 35.5035 25.8979 35.7958C25.5396 36.2646 25.4542 37.1188 25.2833 38.8292C25.1937 39.7333 25.1479 40.1854 24.9667 40.5375C24.7358 40.9858 24.3501 41.3352 23.8813 41.5208C23.5125 41.6667 23.0583 41.6667 22.15 41.6667H19.5167C18.6083 41.6667 18.1542 41.6667 17.7875 41.5208C17.3178 41.3357 16.9314 40.9862 16.7 40.5375C16.5187 40.1854 16.4729 39.7333 16.3833 38.8292C16.2125 37.1208 16.1271 36.2667 15.7688 35.7958C15.5457 35.5038 15.2493 35.276 14.9098 35.1355C14.5703 34.995 14.1996 34.9468 13.8354 34.9958C13.25 35.0729 12.5854 35.6167 11.2542 36.7042C10.5521 37.2812 10.2 37.5687 9.82292 37.6896C9.34265 37.843 8.82303 37.8171 8.36042 37.6167C7.99583 37.4583 7.67292 37.1375 7.03333 36.4958L5.17083 34.6333C4.52917 33.9917 4.20833 33.6708 4.05 33.3062C3.84953 32.8436 3.82362 32.324 3.97708 31.8437C4.09792 31.4667 4.38542 31.1146 4.96042 30.4125C6.05 29.0812 6.59375 28.4167 6.67083 27.8312C6.71983 27.4671 6.67164 27.0964 6.53114 26.7569C6.39064 26.4173 6.16284 26.121 5.87083 25.8979C5.40208 25.5396 4.54583 25.4542 2.83542 25.2833C1.93333 25.1937 1.48125 25.1479 1.12708 24.9667C0.680307 24.735 0.332492 24.3494 0.147917 23.8813C2.01787e-07 23.5125 0 23.0583 0 22.15V19.5167C0 18.6083 -1.39698e-07 18.1542 0.145833 17.7875C0.331015 17.3178 0.680448 16.9314 1.12917 16.7C1.48125 16.5187 1.93333 16.4729 2.8375 16.3833C4.54583 16.2125 5.40208 16.1271 5.87083 15.7688C6.16321 15.5459 6.39143 15.2497 6.5323 14.9101C6.67317 14.5706 6.72168 14.1998 6.67292 13.8354C6.59375 13.25 6.04792 12.5854 4.96042 11.2521C4.38542 10.55 4.09792 10.2 3.97708 9.82083C3.82362 9.34057 3.84953 8.82095 4.05 8.35833C4.20833 7.99583 4.52917 7.67292 5.17083 7.03125L7.03333 5.17083C7.675 4.52917 7.99583 4.20625 8.36042 4.05C8.82303 3.84953 9.34265 3.82362 9.82292 3.97708C10.2 4.09792 10.5521 4.38542 11.2542 4.96042C12.5854 6.04792 13.25 6.59167 13.8333 6.67083C14.1984 6.72037 14.57 6.67223 14.9104 6.53133C15.2507 6.39043 15.5476 6.1618 15.7708 5.86875C16.125 5.4 16.2125 4.54583 16.3833 2.83542C16.4729 1.93333 16.5187 1.48125 16.7 1.12708C16.9313 0.679524 17.3169 0.330924 17.7854 0.145833C18.1542 -1.39698e-07 18.6083 0 19.5167 0H22.15C23.0583 0 23.5125 -1.39698e-07 23.8792 0.145833C24.3488 0.331015 24.7353 0.680448 24.9667 1.12917ZM20.8333 29.1667C23.0435 29.1667 25.1631 28.2887 26.7259 26.7259C28.2887 25.1631 29.1667 23.0435 29.1667 20.8333C29.1667 18.6232 28.2887 16.5036 26.7259 14.9408C25.1631 13.378 23.0435 12.5 20.8333 12.5C18.6232 12.5 16.5036 13.378 14.9408 14.9408C13.378 16.5036 12.5 18.6232 12.5 20.8333C12.5 23.0435 13.378 25.1631 14.9408 26.7259C16.5036 28.2887 18.6232 29.1667 20.8333 29.1667Z" fill="black"/>
</svg>
