<svg width="38" height="40" viewBox="0 0 38 40" fill="none" xmlns="http://www.w3.org/2000/svg">
<path d="M33.7778 36V14H4.22222V36H33.7778ZM27.4444 0H31.6667V4H33.7778C34.8976 4 35.9715 4.42143 36.7633 5.17157C37.5552 5.92172 38 6.93913 38 8V36C38 38.22 36.1211 40 33.7778 40H4.22222C3.10242 40 2.02848 39.5786 1.23666 38.8284C0.44484 38.0783 0 37.0609 0 36V8C0 5.8 1.9 4 4.22222 4H6.33333V0H10.5556V4H27.4444V0ZM19 32.34L17.7756 31.28C13.4267 27.54 10.5556 25.08 10.5556 22.06C10.5556 19.6 12.6033 17.66 15.2 17.66C16.6778 17.66 18.0711 18.3 19 19.32C19.9289 18.3 21.3222 17.66 22.8 17.66C25.3967 17.66 27.4444 19.6 27.4444 22.06C27.4444 25.08 24.5733 27.54 20.2244 31.28L19 32.34Z" fill="black"/>
</svg>
