<svg width="45" height="50" viewBox="0 0 45 50" fill="none" xmlns="http://www.w3.org/2000/svg">
<path d="M22.5 38.0952C23.9918 38.0952 25.4226 37.5935 26.4775 36.7005C27.5324 35.8075 28.125 34.5963 28.125 33.3333C28.125 32.0704 27.5324 30.8592 26.4775 29.9662C25.4226 29.0731 23.9918 28.5714 22.5 28.5714C21.0082 28.5714 19.5774 29.0731 18.5225 29.9662C17.4676 30.8592 16.875 32.0704 16.875 33.3333C16.875 34.5963 17.4676 35.8075 18.5225 36.7005C19.5774 37.5935 21.0082 38.0952 22.5 38.0952ZM39.375 16.6667C40.8668 16.6667 42.2976 17.1684 43.3525 18.0614C44.4074 18.9544 45 20.1656 45 21.4286V45.2381C45 46.501 44.4074 47.7122 43.3525 48.6053C42.2976 49.4983 40.8668 50 39.375 50H5.625C4.13316 50 2.70242 49.4983 1.64752 48.6053C0.592632 47.7122 0 46.501 0 45.2381V21.4286C0 20.1656 0.592632 18.9544 1.64752 18.0614C2.70242 17.1684 4.13316 16.6667 5.625 16.6667H8.4375V11.9048C8.4375 8.74742 9.91908 5.7194 12.5563 3.48682C15.1935 1.25425 18.7704 0 22.5 0C24.3467 0 26.1753 0.307926 27.8815 0.906196C29.5876 1.50447 31.1379 2.38136 32.4437 3.48682C33.7495 4.59228 34.7854 5.90465 35.4921 7.34901C36.1988 8.79336 36.5625 10.3414 36.5625 11.9048V16.6667H39.375ZM22.5 4.7619C20.2622 4.7619 18.1161 5.51445 16.5338 6.854C14.9514 8.19354 14.0625 10.0104 14.0625 11.9048V16.6667H30.9375V11.9048C30.9375 10.0104 30.0486 8.19354 28.4662 6.854C26.8839 5.51445 24.7378 4.7619 22.5 4.7619Z" fill="black"/>
</svg>
