<svg width="50" height="50" viewBox="0 0 50 50" fill="none" xmlns="http://www.w3.org/2000/svg">
<path d="M49.5137 20.1038H47.5V20H25V30H39.1287C37.0675 35.8213 31.5287 40 25 40C16.7162 40 10 33.2837 10 25C10 16.7163 16.7162 10 25 10C28.8237 10 32.3025 11.4425 34.9512 13.7987L42.0225 6.7275C37.5575 2.56625 31.585 0 25 0C11.1937 0 0 11.1937 0 25C0 38.8063 11.1937 50 25 50C38.8062 50 50 38.8063 50 25C50 23.3238 49.8275 21.6875 49.5137 20.1038Z" fill="#FFC107"/>
<path d="M2.88281 13.3638L11.0966 19.3875C13.3191 13.885 18.7016 10 25.0003 10C28.8241 10 32.3028 11.4425 34.9516 13.7988L42.0228 6.7275C37.5578 2.56625 31.5853 0 25.0003 0C15.3978 0 7.07031 5.42125 2.88281 13.3638Z" fill="#FF3D00"/>
<path d="M25.0004 49.9999C31.4579 49.9999 37.3254 47.5286 41.7616 43.5099L34.0241 36.9624C31.4303 38.9362 28.2599 40.0034 25.0004 39.9999C18.4979 39.9999 12.9766 35.8536 10.8966 30.0674L2.74414 36.3486C6.88164 44.4449 15.2841 49.9999 25.0004 49.9999Z" fill="#4CAF50"/>
<path d="M49.5137 20.1038H47.5V20H25V30H39.1287C38.1428 32.7705 36.3667 35.1915 34.02 36.9637L34.0237 36.9613L41.7612 43.5087C41.2137 44.0062 50 37.5 50 25C50 23.3238 49.8275 21.6875 49.5137 20.1038Z" fill="#1976D2"/>
</svg>
