<svg width="28" height="32" viewBox="0 0 28 32" fill="none" xmlns="http://www.w3.org/2000/svg">
<path d="M14 1C10.5522 1 7.24558 2.20107 4.80761 4.33898C2.36964 6.4769 1 9.37653 1 12.4V13.2308C1.52632 19.4769 7.4386 24.5 14 31C20.8509 24.2154 27 19.0769 27 12.4C27 9.37653 25.6304 6.4769 23.1924 4.33898C20.7544 2.20107 17.4478 1 14 1ZM14 6.92308C15.2374 6.92308 16.4469 7.24494 17.4757 7.84794C18.5044 8.45094 19.306 9.30797 19.7791 10.3106C20.2523 11.3132 20.3756 12.4164 20.1336 13.4805C19.8915 14.5446 19.295 15.5219 18.4194 16.2886C17.5438 17.0554 16.4286 17.5771 15.2148 17.7879C14.001 17.9986 12.7432 17.8889 11.6005 17.4726C10.4578 17.0563 9.48159 16.3521 8.7954 15.4492C8.10922 14.5462 7.74388 13.4851 7.74561 12.4C7.74794 10.9467 8.40791 9.55367 9.58058 8.52676C10.7533 7.49986 12.3428 6.92308 14 6.92308Z" stroke="white" stroke-width="2" stroke-linecap="round" stroke-linejoin="round"/>
</svg>
