<svg width="42" height="26" viewBox="0 0 42 26" fill="none" xmlns="http://www.w3.org/2000/svg">
<path d="M41.5121 1.29167C41.3007 0.782605 40.8961 0.378073 40.3871 0.166667C40.1366 0.0599145 39.8677 0.00329164 39.5954 0H29.1787C28.6262 0 28.0963 0.219494 27.7056 0.610195C27.3149 1.0009 27.0954 1.5308 27.0954 2.08333C27.0954 2.63587 27.3149 3.16577 27.7056 3.55647C28.0963 3.94717 28.6262 4.16667 29.1787 4.16667H34.5746L22.9287 15.8125L16.0746 8.9375C15.8809 8.74223 15.6505 8.58724 15.3966 8.48148C15.1427 8.37571 14.8704 8.32125 14.5954 8.32125C14.3204 8.32125 14.0481 8.37571 13.7942 8.48148C13.5403 8.58724 13.3099 8.74223 13.1162 8.9375L0.616246 21.4375C0.420979 21.6312 0.265991 21.8616 0.160223 22.1155C0.0544547 22.3693 0 22.6416 0 22.9167C0 23.1917 0.0544547 23.464 0.160223 23.7179C0.265991 23.9717 0.420979 24.2022 0.616246 24.3958C0.809919 24.5911 1.04034 24.7461 1.29421 24.8519C1.54809 24.9576 1.82039 25.0121 2.09541 25.0121C2.37044 25.0121 2.64274 24.9576 2.89661 24.8519C3.15049 24.7461 3.38091 24.5911 3.57458 24.3958L14.5954 13.3542L21.4496 20.2292C21.6433 20.4244 21.8737 20.5794 22.1275 20.6852C22.3814 20.791 22.6537 20.8454 22.9287 20.8454C23.2038 20.8454 23.4761 20.791 23.7299 20.6852C23.9838 20.5794 24.2142 20.4244 24.4079 20.2292L37.5121 7.10417V12.5C37.5121 13.0525 37.7316 13.5824 38.1223 13.9731C38.513 14.3638 39.0429 14.5833 39.5954 14.5833C40.1479 14.5833 40.6779 14.3638 41.0686 13.9731C41.4593 13.5824 41.6787 13.0525 41.6787 12.5V2.08333C41.6755 1.81109 41.6188 1.54213 41.5121 1.29167Z" fill="black"/>
</svg>
